<svg width="680" height="680" xmlns="http://www.w3.org/2000/svg" xml:space="preserve" overflow="hidden"><defs><clipPath id="a"><path d="M260-6h680v680H260z"/></clipPath><clipPath id="b"><path d="M341 32h442v141H341z"/></clipPath><clipPath id="c"><path d="M341 259h395v141H341z"/></clipPath></defs><g clip-path="url(#a)" transform="translate(-260 6)"><path d="M503.092 635.739H341.404V33.409l161.688-1.208v603.538z" fill="#008597"/><path d="M341.404 32.2v139.93h440.64V32.2h-440.64zm0 227.574v139.929h388.96V259.774h-388.96z" fill="#008597"/><g clip-path="url(#b)"><path d="M341.404 32.2h11.937v139.93h-11.937zm11.937 0h5.894v139.93h-5.894z" fill="#008597"/><path d="M359.235 32.2h5.893v139.93h-5.893z" fill="#018697"/><path d="M365.279 32.2h5.893v139.93h-5.893z" fill="#028798"/><path d="M371.172 32.2h5.894v139.93h-5.894z" fill="#038798"/><path d="M377.066 32.2h5.893v139.93h-5.893z" fill="#048899"/><path d="M383.11 32.2h5.894v139.93h-5.894z" fill="#058999"/><path d="M389.004 32.2h5.893v139.93h-5.893z" fill="#068A9A"/><path d="M395.048 32.2h5.893v139.93h-5.893z" fill="#078B9A"/><path d="M400.941 32.2h5.894v139.93h-5.894z" fill="#088C9B"/><path d="M406.835 32.2h5.893v139.93h-5.893z" fill="#098C9B"/><path d="M412.879 32.2h5.893v139.93h-5.893z" fill="#0A8D9C"/><path d="M418.772 32.2h5.894v139.93h-5.894z" fill="#0B8E9C"/><path d="M424.817 32.2h5.893v139.93h-5.893z" fill="#0C8F9D"/><path d="M430.71 32.2h5.894v139.93h-5.894z" fill="#0D909D"/><path d="M436.604 32.2h5.893v139.93h-5.893z" fill="#0E919E"/><path d="M442.648 32.2h5.893v139.93h-5.893z" fill="#0F919E"/><path d="M448.541 32.2h5.894v139.93h-5.894z" fill="#10929F"/><path d="M454.586 32.2h5.893v139.93h-5.893z" fill="#11939F"/><path d="M460.479 32.2h5.893v139.93h-5.893z" fill="#1294A0"/><path d="M466.524 32.2h5.893v139.93h-5.893z" fill="#1395A0"/><path d="M472.417 32.2h5.893v139.93h-5.893z" fill="#1496A1"/><path d="M478.31 32.2h5.894v139.93h-5.894z" fill="#1596A1"/><path d="M484.355 32.2h5.893v139.93h-5.893z" fill="#1697A2"/><path d="M490.248 32.2h5.893v139.93h-5.893z" fill="#1798A2"/><path d="M496.292 32.2h5.894v139.93h-5.894z" fill="#1899A2"/><path d="M502.186 32.2h5.893v139.93h-5.893z" fill="#199AA3"/><path d="M508.079 32.2h5.893v139.93h-5.893z" fill="#1A9BA3"/><path d="M514.124 32.2h5.893v139.93h-5.893z" fill="#1B9BA4"/><path d="M520.017 32.2h5.893v139.93h-5.893z" fill="#1C9CA4"/><path d="M526.061 32.2h5.894v139.93h-5.894z" fill="#1D9DA5"/><path d="M531.955 32.2h5.893v139.93h-5.893z" fill="#1E9EA5"/><path d="M537.848 32.2h5.893v139.93h-5.893z" fill="#1F9FA6"/><path d="M543.892 32.2h5.894v139.93h-5.894z" fill="#20A0A6"/><path d="M549.786 32.2h5.893v139.93h-5.893z" fill="#21A0A7"/><path d="M555.83 32.2h5.894v139.93h-5.894z" fill="#22A1A7"/><path d="M561.724 32.2h5.893v139.93h-5.893z" fill="#23A2A8"/><path d="M567.768 32.2h5.893v139.93h-5.893z" fill="#25A3A8"/><path d="M573.661 32.2h5.894v139.93h-5.894z" fill="#26A4A9"/><path d="M579.555 32.2h5.893v139.93h-5.893z" fill="#27A5A9"/><path d="M585.599 32.2h5.893v139.93h-5.893z" fill="#28A5AA"/><path d="M591.492 32.2h5.894v139.93h-5.894z" fill="#29A6AA"/><path d="M597.537 32.2h5.893v139.93h-5.893z" fill="#2AA7AB"/><path d="M603.43 32.2h5.894v139.93h-5.894z" fill="#2BA8AB"/><path d="M609.324 32.2h5.893v139.93h-5.893z" fill="#2CA9AC"/><path d="M615.368 32.2h5.893v139.93h-5.893z" fill="#2DAAAC"/><path d="M621.261 32.2h5.894v139.93h-5.894z" fill="#2EAAAD"/><path d="M627.306 32.2h5.893v139.93h-5.893z" fill="#2FABAD"/><path d="M633.199 32.2h5.893v139.93h-5.893z" fill="#30ACAE"/><path d="M639.092 32.2h5.894v139.93h-5.894z" fill="#31ADAE"/><path d="M645.137 32.2h5.893v139.93h-5.893z" fill="#32AEAE"/><path d="M651.03 32.2h5.894v139.93h-5.894z" fill="#33AFAF"/><path d="M657.075 32.2h5.893v139.93h-5.893z" fill="#34AFAF"/><path d="M662.968 32.2h5.893v139.93h-5.893z" fill="#35B0B0"/><path d="M669.012 32.2h5.894v139.93h-5.894z" fill="#36B1B0"/><path d="M674.906 32.2h5.893v139.93h-5.893z" fill="#37B2B1"/><path d="M680.799 32.2h5.893v139.93h-5.893z" fill="#38B3B1"/><path d="M686.844 32.2h5.893v139.93h-5.893z" fill="#39B4B2"/><path d="M692.737 32.2h5.893v139.93h-5.893z" fill="#3AB4B2"/><path d="M698.781 32.2h5.894v139.93h-5.894z" fill="#3BB5B3"/><path d="M704.675 32.2h5.893v139.93h-5.893z" fill="#3CB6B3"/><path d="M710.568 32.2h5.893v139.93h-5.893z" fill="#3DB7B4"/><path d="M716.612 32.2h5.894v139.93h-5.894z" fill="#3EB8B4"/><path d="M722.506 32.2h5.893v139.93h-5.893z" fill="#3FB9B5"/><path d="M728.55 32.2h5.894v139.93h-5.894z" fill="#40B9B5"/><path d="M734.444 32.2h5.893v139.93h-5.893z" fill="#41BAB6"/><path d="M740.488 32.2h5.893v139.93h-5.893z" fill="#42BBB6"/><path d="M746.381 32.2h5.894v139.93h-5.894z" fill="#43BCB7"/><path d="M752.275 32.2h5.893v139.93h-5.893z" fill="#44BDB7"/><path d="M758.319 32.2h5.893v139.93h-5.893z" fill="#45BEB8"/><path d="M764.212 32.2h5.894v139.93h-5.894z" fill="#46BEB8"/><path d="M770.257 32.2h5.893v139.93h-5.893z" fill="#47BFB9"/><path d="M776.15 32.2h5.894v139.93h-5.894z" fill="#48C0B9"/></g><g clip-path="url(#c)"><path d="M341.404 259.774h10.577v139.929h-10.577zm10.577 0h5.289v139.929h-5.289z" fill="#008597"/><path d="M357.421 259.774h5.289v139.929h-5.289z" fill="#018697"/><path d="M362.71 259.774h5.289v139.929h-5.289z" fill="#028798"/><path d="M367.999 259.774h5.289v139.929h-5.289z" fill="#038798"/><path d="M373.288 259.774h5.289v139.929h-5.289z" fill="#048899"/><path d="M378.728 259.774h5.289v139.929h-5.289z" fill="#058999"/><path d="M384.017 259.774h5.289v139.929h-5.289z" fill="#068A9A"/><path d="M389.306 259.774h5.289v139.929h-5.289z" fill="#078B9A"/><path d="M394.746 259.774h5.289v139.929h-5.289z" fill="#088C9B"/><path d="M400.035 259.774h5.289v139.929h-5.289z" fill="#098C9B"/><path d="M405.324 259.774h5.288v139.929h-5.288z" fill="#0A8D9C"/><path d="M410.612 259.774h5.289v139.929h-5.289z" fill="#0B8E9C"/><path d="M416.052 259.774h5.289v139.929h-5.289z" fill="#0C8F9D"/><path d="M421.341 259.774h5.289v139.929h-5.289z" fill="#0D909D"/><path d="M426.63 259.774h5.289v139.929h-5.289z" fill="#0E919E"/><path d="M431.919 259.774h5.289v139.929h-5.289z" fill="#0F919E"/><path d="M437.359 259.774h5.289v139.929h-5.289z" fill="#10929F"/><path d="M442.648 259.774h5.289v139.929h-5.289z" fill="#11939F"/><path d="M447.937 259.774h5.289v139.929h-5.289z" fill="#1294A0"/><path d="M453.226 259.774h5.289v139.929h-5.289z" fill="#1395A0"/><path d="M458.666 259.774h5.289v139.929h-5.289z" fill="#1496A1"/><path d="M463.955 259.774h5.289v139.929h-5.289z" fill="#1596A1"/><path d="M469.244 259.774h5.288v139.929h-5.288z" fill="#1697A2"/><path d="M474.684 259.774h5.288v139.929h-5.288z" fill="#1798A2"/><path d="M479.972 259.774h5.289v139.929h-5.289z" fill="#1899A2"/><path d="M485.261 259.774h5.289v139.929h-5.289z" fill="#199AA3"/><path d="M490.55 259.774h5.289v139.929h-5.289z" fill="#1A9BA3"/><path d="M495.99 259.774h5.289v139.929h-5.289z" fill="#1B9BA4"/><path d="M501.279 259.774h5.289v139.929h-5.289z" fill="#1C9CA4"/><path d="M506.568 259.774h5.289v139.929h-5.289z" fill="#1D9DA5"/><path d="M511.857 259.774h5.289v139.929h-5.289z" fill="#1E9EA5"/><path d="M517.297 259.774h5.289v139.929h-5.289z" fill="#1F9FA6"/><path d="M522.586 259.774h5.289v139.929h-5.289z" fill="#20A0A6"/><path d="M527.875 259.774h5.289v139.929h-5.289z" fill="#21A0A7"/><path d="M533.164 259.774h5.288v139.929h-5.288z" fill="#22A1A7"/><path d="M538.604 259.774h5.288v139.929h-5.288z" fill="#23A2A8"/><path d="M543.892 259.774h5.289v139.929h-5.289z" fill="#25A3A8"/><path d="M549.181 259.774h5.289v139.929h-5.289z" fill="#26A4A9"/><path d="M554.621 259.774h5.289v139.929h-5.289z" fill="#27A5A9"/><path d="M559.91 259.774h5.289v139.929h-5.289z" fill="#28A5AA"/><path d="M565.199 259.774h5.289v139.929h-5.289z" fill="#29A6AA"/><path d="M570.488 259.774h5.289v139.929h-5.289z" fill="#2AA7AB"/><path d="M575.928 259.774h5.289v139.929h-5.289z" fill="#2BA8AB"/><path d="M581.217 259.774h5.289v139.929h-5.289z" fill="#2CA9AC"/><path d="M586.506 259.774h5.289v139.929h-5.289z" fill="#2DAAAC"/><path d="M591.795 259.774h5.289v139.929h-5.289z" fill="#2EAAAD"/><path d="M597.235 259.774h5.289v139.929h-5.289z" fill="#2FABAD"/><path d="M602.524 259.774h5.288v139.929h-5.288z" fill="#30ACAE"/><path d="M607.812 259.774h5.289v139.929h-5.289z" fill="#31ADAE"/><path d="M613.101 259.774h5.289v139.929h-5.289z" fill="#32AEAE"/><path d="M618.541 259.774h5.289v139.929h-5.289z" fill="#33AFAF"/><path d="M623.83 259.774h5.289v139.929h-5.289z" fill="#34AFAF"/><path d="M629.119 259.774h5.289v139.929h-5.289z" fill="#35B0B0"/><path d="M634.559 259.774h5.289v139.929h-5.289z" fill="#36B1B0"/><path d="M639.848 259.774h5.289v139.929h-5.289z" fill="#37B2B1"/><path d="M645.137 259.774h5.289v139.929h-5.289z" fill="#38B3B1"/><path d="M650.426 259.774h5.289v139.929h-5.289z" fill="#39B4B2"/><path d="M655.866 259.774h5.289v139.929h-5.289z" fill="#3AB4B2"/><path d="M661.155 259.774h5.289v139.929h-5.289z" fill="#3BB5B3"/><path d="M666.444 259.774h5.288v139.929h-5.288z" fill="#3CB6B3"/><path d="M671.732 259.774h5.289v139.929h-5.289z" fill="#3DB7B4"/><path d="M677.172 259.774h5.289v139.929h-5.289z" fill="#3EB8B4"/><path d="M682.461 259.774h5.289v139.929h-5.289z" fill="#3FB9B5"/><path d="M687.75 259.774h5.289v139.929h-5.289z" fill="#40B9B5"/><path d="M693.039 259.774h5.289v139.929h-5.289z" fill="#41BAB6"/><path d="M698.479 259.774h5.289v139.929h-5.289z" fill="#42BBB6"/><path d="M703.768 259.774h5.289v139.929h-5.289z" fill="#43BCB7"/><path d="M709.057 259.774h5.289v139.929h-5.289z" fill="#44BDB7"/><path d="M714.497 259.774h5.289v139.929h-5.289z" fill="#45BEB8"/><path d="M719.786 259.774h5.289v139.929h-5.289z" fill="#46BEB8"/><path d="M725.075 259.774h5.289v139.929h-5.289z" fill="#47BFB9"/><path d="M730.364 259.774h5.288v139.929h-5.288z" fill="#48C0B9"/></g><path d="M764.772 346.588a1245.272 1245.272 0 0 0 24.782-8.659c6.88-2.468 13.932-4.941 21.155-7.42 7.223-2.478 13.243-4.724 18.058-6.739l-5.893 28.182c-1.693 7.797-3.31 13.665-4.851 17.604-3.002 9.621-6.649 18.572-10.94 26.853-4.292 8.281-8.382 15.509-12.271 21.684-4.533 7.244-9.268 13.973-14.204 20.189l-63.467 22.787 53.448 6.649c-6.679 6.317-13.872 12.83-21.578 19.539-6.72 5.611-14.381 11.535-22.984 17.771-8.604 6.235-17.675 12.053-27.215 17.453-9.541 5.4-20.33 8.507-32.368 9.323-12.039.816-23.528.63-34.469-.559-12.683-1.088-25.427-3.4-38.231-6.936a1194.64 1194.64 0 0 0 11.545-20.581c3.526-6.498 7.767-14.169 12.723-23.014 4.957-8.845 10.14-18.667 15.55-29.467a8465.886 8465.886 0 0 0 44.396-85.922 18724.854 18724.854 0 0 0 38.594-76.16c12.996-26.263 25.538-51.1 37.627-74.513-15.444 19.736-31.638 41.788-48.583 66.157-14.688 20.752-30.922 45.348-48.703 73.787-17.78 28.44-35.788 59.443-54.022 93.009-3.838 6.851-8.15 14.784-12.935 23.8a4287.564 4287.564 0 0 0-15.066 28.666 12003.304 12003.304 0 0 1-16.244 31.069 3423.307 3423.307 0 0 1-16.517 31.098c-12.794 23.453-25.875 47.973-39.243 73.561-.041-7.354.861-16.864 2.705-28.53 1.581-9.903 4.437-22.319 8.568-37.249 4.13-14.929 10.21-32.599 18.239-53.009 5.289-12.895 9.318-22.919 12.089-30.071 2.77-7.153 4.936-12.699 6.497-16.638 1.532-4.291 2.786-7.162 3.763-8.613-1.864-2.015-2.433-6.196-1.707-12.542.403-5.622 1.984-13.847 4.744-24.677 2.761-10.829 7.657-26.071 14.688-45.726 7.012-19.997 16.482-41.611 28.409-64.842 11.928-23.231 25.528-46.376 40.8-69.435 15.273-23.06 31.97-45.49 50.094-67.29 18.123-21.8 36.815-41.269 56.077-58.405 19.262-17.136 38.669-31.385 58.223-42.749 19.554-11.363 38.735-18.239 57.543-20.627.988 12.22.61 28.45-1.133 48.688-1.743 20.239-4.11 41.919-7.102 65.039a1886.998 1886.998 0 0 1-10.503 70.478c-4.009 23.865-7.953 45.54-11.832 65.023l-68.256 41.964z" fill="#ED9240"/></g></svg>