<svg width="602" height="600" xmlns="http://www.w3.org/2000/svg" xml:space="preserve" overflow="hidden"><defs><clipPath id="a"><path d="M250 60h602v600H250z"/></clipPath><clipPath id="b"><path d="M251 60h600v600H251z"/></clipPath><clipPath id="c"><path d="M251 60h600v600H251z"/></clipPath><clipPath id="d"><path d="M251 60h600v600H251z"/></clipPath><clipPath id="e"><path d="M322 93h390v125H322z"/></clipPath><clipPath id="f"><path d="M322 294h349v124H322z"/></clipPath></defs><g clip-path="url(#a)" transform="translate(-250 -60)"><g clip-path="url(#b)"><g clip-path="url(#c)"><g clip-path="url(#d)"><path d="M465.493 626.24H322.827V94.773l142.666-1.066V626.24z" fill="#008597"/><path d="M322.827 93.707v123.466h388.8V93.707h-388.8zm0 200.8v123.466h343.2V294.507h-343.2z" fill="#008597"/><g clip-path="url(#e)"><path d="M322.827 93.707h10.533v123.466h-10.533zm10.533 0h5.2v123.466h-5.2z" fill="#008597"/><path d="M338.56 93.707h5.2v123.466h-5.2z" fill="#018697"/><path d="M343.893 93.707h5.2v123.466h-5.2z" fill="#028798"/><path d="M349.093 93.707h5.2v123.466h-5.2z" fill="#038798"/><path d="M354.293 93.707h5.2v123.466h-5.2z" fill="#048899"/><path d="M359.627 93.707h5.2v123.466h-5.2z" fill="#058999"/><path d="M364.827 93.707h5.2v123.466h-5.2z" fill="#068A9A"/><path d="M370.16 93.707h5.2v123.466h-5.2z" fill="#078B9A"/><path d="M375.36 93.707h5.2v123.466h-5.2z" fill="#088C9B"/><path d="M380.56 93.707h5.2v123.466h-5.2z" fill="#098C9B"/><path d="M385.893 93.707h5.2v123.466h-5.2z" fill="#0A8D9C"/><path d="M391.093 93.707h5.2v123.466h-5.2z" fill="#0B8E9C"/><path d="M396.427 93.707h5.2v123.466h-5.2z" fill="#0C8F9D"/><path d="M401.627 93.707h5.2v123.466h-5.2z" fill="#0D909D"/><path d="M406.827 93.707h5.2v123.466h-5.2z" fill="#0E919E"/><path d="M412.16 93.707h5.2v123.466h-5.2z" fill="#0F919E"/><path d="M417.36 93.707h5.2v123.466h-5.2z" fill="#10929F"/><path d="M422.693 93.707h5.2v123.466h-5.2z" fill="#11939F"/><path d="M427.893 93.707h5.2v123.466h-5.2z" fill="#1294A0"/><path d="M433.227 93.707h5.2v123.466h-5.2z" fill="#1395A0"/><path d="M438.427 93.707h5.2v123.466h-5.2z" fill="#1496A1"/><path d="M443.627 93.707h5.2v123.466h-5.2z" fill="#1596A1"/><path d="M448.96 93.707h5.2v123.466h-5.2z" fill="#1697A2"/><path d="M454.16 93.707h5.2v123.466h-5.2z" fill="#1798A2"/><path d="M459.493 93.707h5.2v123.466h-5.2z" fill="#1899A2"/><path d="M464.693 93.707h5.2v123.466h-5.2z" fill="#199AA3"/><path d="M469.893 93.707h5.2v123.466h-5.2z" fill="#1A9BA3"/><path d="M475.227 93.707h5.2v123.466h-5.2z" fill="#1B9BA4"/><path d="M480.427 93.707h5.2v123.466h-5.2z" fill="#1C9CA4"/><path d="M485.76 93.707h5.2v123.466h-5.2z" fill="#1D9DA5"/><path d="M490.96 93.707h5.2v123.466h-5.2z" fill="#1E9EA5"/><path d="M496.16 93.707h5.2v123.466h-5.2z" fill="#1F9FA6"/><path d="M501.493 93.707h5.2v123.466h-5.2z" fill="#20A0A6"/><path d="M506.693 93.707h5.2v123.466h-5.2z" fill="#21A0A7"/><path d="M512.027 93.707h5.2v123.466h-5.2z" fill="#22A1A7"/><path d="M517.227 93.707h5.2v123.466h-5.2z" fill="#23A2A8"/><path d="M522.56 93.707h5.2v123.466h-5.2z" fill="#25A3A8"/><path d="M527.76 93.707h5.2v123.466h-5.2z" fill="#26A4A9"/><path d="M532.96 93.707h5.2v123.466h-5.2z" fill="#27A5A9"/><path d="M538.293 93.707h5.2v123.466h-5.2z" fill="#28A5AA"/><path d="M543.493 93.707h5.2v123.466h-5.2z" fill="#29A6AA"/><path d="M548.827 93.707h5.2v123.466h-5.2z" fill="#2AA7AB"/><path d="M554.027 93.707h5.2v123.466h-5.2z" fill="#2BA8AB"/><path d="M559.227 93.707h5.2v123.466h-5.2z" fill="#2CA9AC"/><path d="M564.56 93.707h5.2v123.466h-5.2z" fill="#2DAAAC"/><path d="M569.76 93.707h5.2v123.466h-5.2z" fill="#2EAAAD"/><path d="M575.093 93.707h5.2v123.466h-5.2z" fill="#2FABAD"/><path d="M580.293 93.707h5.2v123.466h-5.2z" fill="#30ACAE"/><path d="M585.493 93.707h5.2v123.466h-5.2z" fill="#31ADAE"/><path d="M590.827 93.707h5.2v123.466h-5.2z" fill="#32AEAE"/><path d="M596.027 93.707h5.2v123.466h-5.2z" fill="#33AFAF"/><path d="M601.36 93.707h5.2v123.466h-5.2z" fill="#34AFAF"/><path d="M606.56 93.707h5.2v123.466h-5.2z" fill="#35B0B0"/><path d="M611.893 93.707h5.2v123.466h-5.2z" fill="#36B1B0"/><path d="M617.093 93.707h5.2v123.466h-5.2z" fill="#37B2B1"/><path d="M622.293 93.707h5.2v123.466h-5.2z" fill="#38B3B1"/><path d="M627.627 93.707h5.2v123.466h-5.2z" fill="#39B4B2"/><path d="M632.827 93.707h5.2v123.466h-5.2z" fill="#3AB4B2"/><path d="M638.16 93.707h5.2v123.466h-5.2z" fill="#3BB5B3"/><path d="M643.36 93.707h5.2v123.466h-5.2z" fill="#3CB6B3"/><path d="M648.56 93.707h5.2v123.466h-5.2z" fill="#3DB7B4"/><path d="M653.893 93.707h5.2v123.466h-5.2z" fill="#3EB8B4"/><path d="M659.093 93.707h5.2v123.466h-5.2z" fill="#3FB9B5"/><path d="M664.427 93.707h5.2v123.466h-5.2z" fill="#40B9B5"/><path d="M669.627 93.707h5.2v123.466h-5.2z" fill="#41BAB6"/><path d="M674.96 93.707h5.2v123.466h-5.2z" fill="#42BBB6"/><path d="M680.16 93.707h5.2v123.466h-5.2z" fill="#43BCB7"/><path d="M685.36 93.707h5.2v123.466h-5.2z" fill="#44BDB7"/><path d="M690.693 93.707h5.2v123.466h-5.2z" fill="#45BEB8"/><path d="M695.893 93.707h5.2v123.466h-5.2z" fill="#46BEB8"/><path d="M701.227 93.707h5.2v123.466h-5.2z" fill="#47BFB9"/><path d="M706.427 93.707h5.2v123.466h-5.2z" fill="#48C0B9"/></g><g clip-path="url(#f)"><path d="M322.827 294.507h9.333v123.466h-9.333zm9.333 0h4.667v123.466h-4.667z" fill="#008597"/><path d="M336.96 294.507h4.667v123.466h-4.667z" fill="#018697"/><path d="M341.627 294.507h4.666v123.466h-4.666z" fill="#028798"/><path d="M346.293 294.507h4.667v123.466h-4.667z" fill="#038798"/><path d="M350.96 294.507h4.667v123.466h-4.667z" fill="#048899"/><path d="M355.76 294.507h4.667v123.466h-4.667z" fill="#058999"/><path d="M360.427 294.507h4.666v123.466h-4.666z" fill="#068A9A"/><path d="M365.093 294.507h4.667v123.466h-4.667z" fill="#078B9A"/><path d="M369.893 294.507h4.667v123.466h-4.667z" fill="#088C9B"/><path d="M374.56 294.507h4.667v123.466h-4.667z" fill="#098C9B"/><path d="M379.227 294.507h4.666v123.466h-4.666z" fill="#0A8D9C"/><path d="M383.893 294.507h4.667v123.466h-4.667z" fill="#0B8E9C"/><path d="M388.693 294.507h4.667v123.466h-4.667z" fill="#0C8F9D"/><path d="M393.36 294.507h4.667v123.466h-4.667z" fill="#0D909D"/><path d="M398.027 294.507h4.666v123.466h-4.666z" fill="#0E919E"/><path d="M402.693 294.507h4.667v123.466h-4.667z" fill="#0F919E"/><path d="M407.493 294.507h4.667v123.466h-4.667z" fill="#10929F"/><path d="M412.16 294.507h4.667v123.466h-4.667z" fill="#11939F"/><path d="M416.827 294.507h4.666v123.466h-4.666z" fill="#1294A0"/><path d="M421.493 294.507h4.667v123.466h-4.667z" fill="#1395A0"/><path d="M426.293 294.507h4.667v123.466h-4.667z" fill="#1496A1"/><path d="M430.96 294.507h4.667v123.466h-4.667z" fill="#1596A1"/><path d="M435.627 294.507h4.666v123.466h-4.666z" fill="#1697A2"/><path d="M440.427 294.507h4.666v123.466h-4.666z" fill="#1798A2"/><path d="M445.093 294.507h4.667v123.466h-4.667z" fill="#1899A2"/><path d="M449.76 294.507h4.667v123.466h-4.667z" fill="#199AA3"/><path d="M454.427 294.507h4.666v123.466h-4.666z" fill="#1A9BA3"/><path d="M459.227 294.507h4.666v123.466h-4.666z" fill="#1B9BA4"/><path d="M463.893 294.507h4.667v123.466h-4.667z" fill="#1C9CA4"/><path d="M468.56 294.507h4.667v123.466h-4.667z" fill="#1D9DA5"/><path d="M473.227 294.507h4.666v123.466h-4.666z" fill="#1E9EA5"/><path d="M478.027 294.507h4.666v123.466h-4.666z" fill="#1F9FA6"/><path d="M482.693 294.507h4.667v123.466h-4.667z" fill="#20A0A6"/><path d="M487.36 294.507h4.667v123.466h-4.667z" fill="#21A0A7"/><path d="M492.027 294.507h4.666v123.466h-4.666z" fill="#22A1A7"/><path d="M496.827 294.507h4.666v123.466h-4.666z" fill="#23A2A8"/><path d="M501.493 294.507h4.667v123.466h-4.667z" fill="#25A3A8"/><path d="M506.16 294.507h4.667v123.466h-4.667z" fill="#26A4A9"/><path d="M510.96 294.507h4.667v123.466h-4.667z" fill="#27A5A9"/><path d="M515.627 294.507h4.666v123.466h-4.666z" fill="#28A5AA"/><path d="M520.293 294.507h4.667v123.466h-4.667z" fill="#29A6AA"/><path d="M524.96 294.507h4.667v123.466h-4.667z" fill="#2AA7AB"/><path d="M529.76 294.507h4.667v123.466h-4.667z" fill="#2BA8AB"/><path d="M534.427 294.507h4.666v123.466h-4.666z" fill="#2CA9AC"/><path d="M539.093 294.507h4.667v123.466h-4.667z" fill="#2DAAAC"/><path d="M543.76 294.507h4.667v123.466h-4.667z" fill="#2EAAAD"/><path d="M548.56 294.507h4.667v123.466h-4.667z" fill="#2FABAD"/><path d="M553.227 294.507h4.666v123.466h-4.666z" fill="#30ACAE"/><path d="M557.893 294.507h4.667v123.466h-4.667z" fill="#31ADAE"/><path d="M562.56 294.507h4.667v123.466h-4.667z" fill="#32AEAE"/><path d="M567.36 294.507h4.667v123.466h-4.667z" fill="#33AFAF"/><path d="M572.027 294.507h4.666v123.466h-4.666z" fill="#34AFAF"/><path d="M576.693 294.507h4.667v123.466h-4.667z" fill="#35B0B0"/><path d="M581.493 294.507h4.667v123.466h-4.667z" fill="#36B1B0"/><path d="M586.16 294.507h4.667v123.466h-4.667z" fill="#37B2B1"/><path d="M590.827 294.507h4.666v123.466h-4.666z" fill="#38B3B1"/><path d="M595.493 294.507h4.667v123.466h-4.667z" fill="#39B4B2"/><path d="M600.293 294.507h4.667v123.466h-4.667z" fill="#3AB4B2"/><path d="M604.96 294.507h4.667v123.466h-4.667z" fill="#3BB5B3"/><path d="M609.627 294.507h4.666v123.466h-4.666z" fill="#3CB6B3"/><path d="M614.293 294.507h4.667v123.466h-4.667z" fill="#3DB7B4"/><path d="M619.093 294.507h4.667v123.466h-4.667z" fill="#3EB8B4"/><path d="M623.76 294.507h4.667v123.466h-4.667z" fill="#3FB9B5"/><path d="M628.427 294.507h4.666v123.466h-4.666z" fill="#40B9B5"/><path d="M633.093 294.507h4.667v123.466h-4.667z" fill="#41BAB6"/><path d="M637.893 294.507h4.667v123.466h-4.667z" fill="#42BBB6"/><path d="M642.56 294.507h4.667v123.466h-4.667z" fill="#43BCB7"/><path d="M647.227 294.507h4.666v123.466h-4.666z" fill="#44BDB7"/><path d="M652.027 294.507h4.666v123.466h-4.666z" fill="#45BEB8"/><path d="M656.693 294.507h4.667v123.466h-4.667z" fill="#46BEB8"/><path d="M661.36 294.507h4.667v123.466h-4.667z" fill="#47BFB9"/><path d="M666.027 294.507h4.666v123.466h-4.666z" fill="#48C0B9"/></g><path d="M696.387 371.107c7.6-2.569 14.889-5.116 21.866-7.64 6.071-2.178 12.294-4.36 18.667-6.547 6.373-2.187 11.684-4.169 15.933-5.947l-5.2 24.867c-1.493 6.88-2.92 12.058-4.28 15.533-2.649 8.489-5.866 16.387-9.653 23.694-3.787 7.306-7.396 13.684-10.827 19.133-4 6.391-8.177 12.329-12.533 17.813l-56 20.107 47.16 5.867c-5.893 5.573-12.24 11.32-19.04 17.24-5.929 4.951-12.689 10.177-20.28 15.68a254.582 254.582 0 0 1-24.013 15.4c-8.418 4.764-17.938 7.506-28.56 8.226-10.623.72-20.76.556-30.414-.493-11.191-.96-22.435-3-33.733-6.12a1053.38 1053.38 0 0 0 10.187-18.16 1748.38 1748.38 0 0 1 11.226-20.307c4.374-7.804 8.947-16.471 13.72-26a7471.628 7471.628 0 0 0 39.174-75.813 16536.074 16536.074 0 0 0 34.053-67.2c11.467-23.173 22.533-45.089 33.2-65.747-13.627 17.414-27.916 36.871-42.867 58.374-12.96 18.311-27.284 40.013-42.973 65.106-15.689 25.094-31.578 52.449-47.667 82.067-3.386 6.044-7.191 13.044-11.413 21a3779.625 3779.625 0 0 0-13.293 25.293c-4.64 8.907-9.418 18.045-14.334 27.414a3015.667 3015.667 0 0 1-14.573 27.44 4103.31 4103.31 0 0 0-34.627 64.906c-.035-6.489.76-14.88 2.387-25.173 1.396-8.738 3.916-19.693 7.56-32.867 3.644-13.173 9.009-28.764 16.093-46.773 4.667-11.378 8.223-20.222 10.667-26.533a2146.448 2146.448 0 0 1 5.733-14.68c1.351-3.787 2.458-6.32 3.32-7.6-1.644-1.778-2.146-5.467-1.506-11.067.355-4.96 1.751-12.218 4.186-21.773 2.436-9.556 6.756-23.005 12.96-40.347 6.187-17.644 14.543-36.716 25.067-57.213 10.524-20.498 22.524-40.92 36-61.267 13.476-20.347 28.209-40.138 44.2-59.373 15.991-19.236 32.484-36.414 49.48-51.534 16.996-15.12 34.12-27.693 51.373-37.72 17.254-10.026 34.178-16.093 50.774-18.2.871 10.783.537 25.103-1 42.96-1.538 17.858-3.627 36.987-6.267 57.387-2.64 20.4-5.729 41.129-9.267 62.187-3.537 21.057-7.017 40.182-10.44 57.373l-60.226 37.027z" fill="#ED9240"/></g></g></g></g></svg>