<svg xmlns="http://www.w3.org/2000/svg" viewBox="0 0 45 45" xml:space="preserve" preserveAspectRatio="xMinYMin none"><defs><clipPath id="a"><path fill="none" d="M5.387 2.528v9.26h29.16v-9.26H5.387z"/></clipPath><clipPath id="b"><path fill="none" d="M5.387 17.588v9.26h26.1v-9.26h-26.1z"/></clipPath></defs><path fill="#008597" xmlns="http://www.w3.org/2000/svg" d="M16.087 42.468h-10.7V2.608l10.7-.08v39.94z"/><path fill="#008597" xmlns="http://www.w3.org/2000/svg" d="M5.387 2.528v9.26h29.16v-9.26H5.387zm0 15.06v9.26h25.74v-9.26H5.387z"/><g clip-path="url(#a)"><path fill="#008597" d="M5.387 2.528h.79v9.26h-.79zm.79 0h.39v9.26h-.39z"/><path fill="#018697" d="M6.567 2.528h.39v9.26h-.39z"/><path fill="#028798" d="M6.967 2.528h.39v9.26h-.39z"/><path fill="#038798" d="M7.357 2.528h.39v9.26h-.39z"/><path fill="#048899" d="M7.747 2.528h.39v9.26h-.39z"/><path fill="#058999" d="M8.147 2.528h.39v9.26h-.39z"/><path fill="#068a9a" d="M8.537 2.528h.39v9.26h-.39z"/><path fill="#078b9a" d="M8.937 2.528h.39v9.26h-.39z"/><path fill="#088c9b" d="M9.327 2.528h.39v9.26h-.39z"/><path fill="#098c9b" d="M9.717 2.528h.39v9.26h-.39z"/><path fill="#0a8d9c" d="M10.117 2.528h.39v9.26h-.39z"/><path fill="#0b8e9c" d="M10.507 2.528h.39v9.26h-.39z"/><path fill="#0c8f9d" d="M10.907 2.528h.39v9.26h-.39z"/><path fill="#0d909d" d="M11.297 2.528h.39v9.26h-.39z"/><path fill="#0e919e" d="M11.687 2.528h.39v9.26h-.39z"/><path fill="#0f919e" d="M12.087 2.528h.39v9.26h-.39z"/><path fill="#10929f" d="M12.477 2.528h.39v9.26h-.39z"/><path fill="#11939f" d="M12.877 2.528h.39v9.26h-.39z"/><path fill="#1294a0" d="M13.267 2.528h.39v9.26h-.39z"/><path fill="#1395a0" d="M13.667 2.528h.39v9.26h-.39z"/><path fill="#1496a1" d="M14.057 2.528h.39v9.26h-.39z"/><path fill="#1596a1" d="M14.447 2.528h.39v9.26h-.39z"/><path fill="#1697a2" d="M14.847 2.528h.39v9.26h-.39z"/><path fill="#1798a2" d="M15.237 2.528h.39v9.26h-.39z"/><path fill="#1899a2" d="M15.637 2.528h.39v9.26h-.39z"/><path fill="#199aa3" d="M16.027 2.528h.39v9.26h-.39z"/><path fill="#1a9ba3" d="M16.417 2.528h.39v9.26h-.39z"/><path fill="#1b9ba4" d="M16.817 2.528h.39v9.26h-.39z"/><path fill="#1c9ca4" d="M17.207 2.528h.39v9.26h-.39z"/><path fill="#1d9da5" d="M17.607 2.528h.39v9.26h-.39z"/><path fill="#1e9ea5" d="M17.997 2.528h.39v9.26h-.39z"/><path fill="#1f9fa6" d="M18.387 2.528h.39v9.26h-.39z"/><path fill="#20a0a6" d="M18.787 2.528h.39v9.26h-.39z"/><path fill="#21a0a7" d="M19.177 2.528h.39v9.26h-.39z"/><path fill="#22a1a7" d="M19.577 2.528h.39v9.26h-.39z"/><path fill="#23a2a8" d="M19.967 2.528h.39v9.26h-.39z"/><path fill="#25a3a8" d="M20.367 2.528h.39v9.26h-.39z"/><path fill="#26a4a9" d="M20.757 2.528h.39v9.26h-.39z"/><path fill="#27a5a9" d="M21.147 2.528h.39v9.26h-.39z"/><path fill="#28a5aa" d="M21.547 2.528h.39v9.26h-.39z"/><path fill="#29a6aa" d="M21.937 2.528h.39v9.26h-.39z"/><path fill="#2aa7ab" d="M22.337 2.528h.39v9.26h-.39z"/><path fill="#2ba8ab" d="M22.727 2.528h.39v9.26h-.39z"/><path fill="#2ca9ac" d="M23.117 2.528h.39v9.26h-.39z"/><path fill="#2daaac" d="M23.517 2.528h.39v9.26h-.39z"/><path fill="#2eaaad" d="M23.907 2.528h.39v9.26h-.39z"/><path fill="#2fabad" d="M24.307 2.528h.39v9.26h-.39z"/><path fill="#30acae" d="M24.697 2.528h.39v9.26h-.39z"/><path fill="#31adae" d="M25.087 2.528h.39v9.26h-.39z"/><path fill="#32aeae" d="M25.487 2.528h.39v9.26h-.39z"/><path fill="#33afaf" d="M25.877 2.528h.39v9.26h-.39z"/><path fill="#34afaf" d="M26.277 2.528h.39v9.26h-.39z"/><path fill="#35b0b0" d="M26.667 2.528h.39v9.26h-.39z"/><path fill="#36b1b0" d="M27.067 2.528h.39v9.26h-.39z"/><path fill="#37b2b1" d="M27.457 2.528h.39v9.26h-.39z"/><path fill="#38b3b1" d="M27.847 2.528h.39v9.26h-.39z"/><path fill="#39b4b2" d="M28.247 2.528h.39v9.26h-.39z"/><path fill="#3ab4b2" d="M28.637 2.528h.39v9.26h-.39z"/><path fill="#3bb5b3" d="M29.037 2.528h.39v9.26h-.39z"/><path fill="#3cb6b3" d="M29.427 2.528h.39v9.26h-.39z"/><path fill="#3db7b4" d="M29.817 2.528h.39v9.26h-.39z"/><path fill="#3eb8b4" d="M30.217 2.528h.39v9.26h-.39z"/><path fill="#3fb9b5" d="M30.607 2.528h.39v9.26h-.39z"/><path fill="#40b9b5" d="M31.007 2.528h.39v9.26h-.39z"/><path fill="#41bab6" d="M31.397 2.528h.39v9.26h-.39z"/><path fill="#42bbb6" d="M31.797 2.528h.39v9.26h-.39z"/><path fill="#43bcb7" d="M32.187 2.528h.39v9.26h-.39z"/><path fill="#44bdb7" d="M32.577 2.528h.39v9.26h-.39z"/><path fill="#45beb8" d="M32.977 2.528h.39v9.26h-.39z"/><path fill="#46beb8" d="M33.367 2.528h.39v9.26h-.39z"/><path fill="#47bfb9" d="M33.767 2.528h.39v9.26h-.39z"/><path fill="#48c0b9" d="M34.157 2.528h.39v9.26h-.39z"/></g><g clip-path="url(#b)"><path fill="#008597" d="M5.387 17.588h.7v9.26h-.7zm.7 0h.35v9.26h-.35z"/><path fill="#018697" d="M6.447 17.588h.35v9.26h-.35z"/><path fill="#028798" d="M6.797 17.588h.35v9.26h-.35z"/><path fill="#038798" d="M7.147 17.588h.35v9.26h-.35z"/><path fill="#048899" d="M7.497 17.588h.35v9.26h-.35z"/><path fill="#058999" d="M7.857 17.588h.35v9.26h-.35z"/><path fill="#068a9a" d="M8.207 17.588h.35v9.26h-.35z"/><path fill="#078b9a" d="M8.557 17.588h.35v9.26h-.35z"/><path fill="#088c9b" d="M8.917 17.588h.35v9.26h-.35z"/><path fill="#098c9b" d="M9.267 17.588h.35v9.26h-.35z"/><path fill="#0a8d9c" d="M9.617 17.588h.35v9.26h-.35z"/><path fill="#0b8e9c" d="M9.967 17.588h.35v9.26h-.35z"/><path fill="#0c8f9d" d="M10.327 17.588h.35v9.26h-.35z"/><path fill="#0d909d" d="M10.677 17.588h.35v9.26h-.35z"/><path fill="#0e919e" d="M11.027 17.588h.35v9.26h-.35z"/><path fill="#0f919e" d="M11.377 17.588h.35v9.26h-.35z"/><path fill="#10929f" d="M11.737 17.588h.35v9.26h-.35z"/><path fill="#11939f" d="M12.087 17.588h.35v9.26h-.35z"/><path fill="#1294a0" d="M12.437 17.588h.35v9.26h-.35z"/><path fill="#1395a0" d="M12.787 17.588h.35v9.26h-.35z"/><path fill="#1496a1" d="M13.147 17.588h.35v9.26h-.35z"/><path fill="#1596a1" d="M13.497 17.588h.35v9.26h-.35z"/><path fill="#1697a2" d="M13.847 17.588h.35v9.26h-.35z"/><path fill="#1798a2" d="M14.207 17.588h.35v9.26h-.35z"/><path fill="#1899a2" d="M14.557 17.588h.35v9.26h-.35z"/><path fill="#199aa3" d="M14.907 17.588h.35v9.26h-.35z"/><path fill="#1a9ba3" d="M15.257 17.588h.35v9.26h-.35z"/><path fill="#1b9ba4" d="M15.617 17.588h.35v9.26h-.35z"/><path fill="#1c9ca4" d="M15.967 17.588h.35v9.26h-.35z"/><path fill="#1d9da5" d="M16.317 17.588h.35v9.26h-.35z"/><path fill="#1e9ea5" d="M16.667 17.588h.35v9.26h-.35z"/><path fill="#1f9fa6" d="M17.027 17.588h.35v9.26h-.35z"/><path fill="#20a0a6" d="M17.377 17.588h.35v9.26h-.35z"/><path fill="#21a0a7" d="M17.727 17.588h.35v9.26h-.35z"/><path fill="#22a1a7" d="M18.077 17.588h.35v9.26h-.35z"/><path fill="#23a2a8" d="M18.437 17.588h.35v9.26h-.35z"/><path fill="#25a3a8" d="M18.787 17.588h.35v9.26h-.35z"/><path fill="#26a4a9" d="M19.137 17.588h.35v9.26h-.35z"/><path fill="#27a5a9" d="M19.497 17.588h.35v9.26h-.35z"/><path fill="#28a5aa" d="M19.847 17.588h.35v9.26h-.35z"/><path fill="#29a6aa" d="M20.197 17.588h.35v9.26h-.35z"/><path fill="#2aa7ab" d="M20.547 17.588h.35v9.26h-.35z"/><path fill="#2ba8ab" d="M20.907 17.588h.35v9.26h-.35z"/><path fill="#2ca9ac" d="M21.257 17.588h.35v9.26h-.35z"/><path fill="#2daaac" d="M21.607 17.588h.35v9.26h-.35z"/><path fill="#2eaaad" d="M21.957 17.588h.35v9.26h-.35z"/><path fill="#2fabad" d="M22.317 17.588h.35v9.26h-.35z"/><path fill="#30acae" d="M22.667 17.588h.35v9.26h-.35z"/><path fill="#31adae" d="M23.017 17.588h.35v9.26h-.35z"/><path fill="#32aeae" d="M23.367 17.588h.35v9.26h-.35z"/><path fill="#33afaf" d="M23.727 17.588h.35v9.26h-.35z"/><path fill="#34afaf" d="M24.077 17.588h.35v9.26h-.35z"/><path fill="#35b0b0" d="M24.427 17.588h.35v9.26h-.35z"/><path fill="#36b1b0" d="M24.787 17.588h.35v9.26h-.35z"/><path fill="#37b2b1" d="M25.137 17.588h.35v9.26h-.35z"/><path fill="#38b3b1" d="M25.487 17.588h.35v9.26h-.35z"/><path fill="#39b4b2" d="M25.837 17.588h.35v9.26h-.35z"/><path fill="#3ab4b2" d="M26.197 17.588h.35v9.26h-.35z"/><path fill="#3bb5b3" d="M26.547 17.588h.35v9.26h-.35z"/><path fill="#3cb6b3" d="M26.897 17.588h.35v9.26h-.35z"/><path fill="#3db7b4" d="M27.247 17.588h.35v9.26h-.35z"/><path fill="#3eb8b4" d="M27.607 17.588h.35v9.26h-.35z"/><path fill="#3fb9b5" d="M27.957 17.588h.35v9.26h-.35z"/><path fill="#40b9b5" d="M28.307 17.588h.35v9.26h-.35z"/><path fill="#41bab6" d="M28.657 17.588h.35v9.26h-.35z"/><path fill="#42bbb6" d="M29.017 17.588h.35v9.26h-.35z"/><path fill="#43bcb7" d="M29.367 17.588h.35v9.26h-.35z"/><path fill="#44bdb7" d="M29.717 17.588h.35v9.26h-.35z"/><path fill="#45beb8" d="M30.077 17.588h.35v9.26h-.35z"/><path fill="#46beb8" d="M30.427 17.588h.35v9.26h-.35z"/><path fill="#47bfb9" d="M30.777 17.588h.35v9.26h-.35z"/><path fill="#48c0b9" d="M31.127 17.588h.35v9.26h-.35z"/></g><path d="M33.404 23.333q.855-.289 1.64-.573.683-.245 1.4-.491t1.195-.446l-.39 1.865q-.168.774-.321 1.165-.298.955-.724 1.777t-.812 1.435q-.45.719-.94 1.336l-4.2 1.508 3.537.44q-.663.627-1.428 1.293-.667.557-1.521 1.176t-1.801 1.155-2.142.617-2.281-.037q-1.259-.108-2.53-.459.351-.61.764-1.362.35-.645.842-1.523t1.029-1.95q1.518-2.898 2.938-5.686t2.554-5.04q1.29-2.607 2.49-4.931-1.533 1.959-3.215 4.378-1.458 2.06-3.223 4.883t-3.575 6.155q-.381.68-.856 1.575t-.997 1.897-1.075 2.056-1.093 2.058q-1.27 2.328-2.597 4.868-.004-.73.179-1.888.157-.983.567-2.465t1.207-3.508q.525-1.28.8-1.99t.43-1.101q.152-.426.249-.57-.185-.2-.113-.83.04-.558.314-1.633t.972-3.026q.696-1.985 1.88-4.291t2.7-4.595 3.315-4.453 3.711-3.865 3.853-2.829 3.808-1.365q.098 1.213-.075 3.222t-.47 4.304-.695 4.664-.783 4.303l-4.517 2.777z" fill="#ed9240" stroke="null"/></svg>